MoBL_ARMS_module2_4_allmuscles_wrist_states		
version=1		
nRows=218		
nColumns=3		
inDegrees=yes		
		
# SIMM Motion File Header:		
name MoBL_ARMS_module2_4_allmuscles_wrist_states		
datacolumns 3		
datarows 218		
otherdata 1		
range 4.886586054 5.366553155		
endheader		
time	deviation	flexion
4.886586054	0.333515083	-0.073711337
4.889175976	0.333123366	-0.073756153
4.891066364	0.332842631	-0.073777818
4.892956751	0.332566079	-0.07379014
4.895545179	0.332193864	-0.073792
4.898133606	0.331828479	-0.073776651
4.900025768	0.331565131	-0.073754472
4.901917931	0.331304456	-0.073722859
4.90450576	0.330951498	-0.073663931
4.907093589	0.330601847	-0.073586335
4.908983805	0.330348203	-0.073517603
4.91087402	0.330095886	-0.073438609
4.913464403	0.329752097	-0.073313739
4.916054787	0.329410393	-0.073169921
4.917944834	0.329162208	-0.073053235
4.919834882	0.328914812	-0.072926769
4.922424995	0.328576796	-0.072737669
4.925015109	0.328239707	-0.072530238
4.926905556	0.327994213	-0.072367164
4.928796003	0.327749244	-0.072194183
4.931385677	0.327414765	-0.07194119
4.93397535	0.327081967	-0.071669989
4.93586575	0.326840378	-0.071460865
4.93775615	0.326600201	-0.071242591
4.940343873	0.326274623	-0.070929021
4.942931595	0.325955089	-0.070597357
4.944824692	0.325727326	-0.070341891
4.946717789	0.325506371	-0.070074292
4.949304212	0.3252178	-0.069687154
4.951890635	0.32494692	-0.06927359
4.953781268	0.324761714	-0.068954419
4.955671901	0.324588751	-0.068621484
4.958262038	0.324373797	-0.068144205
4.960852176	0.324186268	-0.067643834
4.962741269	0.324067577	-0.067264778
4.964630362	0.323964508	-0.066873783
4.967223026	0.323849528	-0.066317595
4.96981569	0.323767767	-0.065739332
4.971704925	0.3237309	-0.06530518
4.973594159	0.323713974	-0.064861694
4.976184881	0.323723395	-0.064241286
4.978775604	0.323770088	-0.063610507
4.980666414	0.323827314	-0.063145761
4.982557225	0.323903986	-0.062678774
4.985111396	0.32403865	-0.062046492
4.987396335	0.32418932	-0.061481621
4.989681274	0.324367576	-0.060919757
4.991966214	0.324571467	-0.060363131
4.993997051	0.324771917	-0.059874496
4.996027889	0.324988128	-0.059392897
4.998058726	0.325218014	-0.058919278
5.000741638	0.325539806	-0.058306809
5.002842231	0.325804371	-0.057838035
5.004942824	0.326078791	-0.057378499
5.007043416	0.326361967	-0.056927717
5.009581612	0.326714114	-0.056393764
5.011660575	0.327009234	-0.055964287
5.013739537	0.327309087	-0.055541054
5.0158185	0.327612592	-0.055123241
5.018398543	0.327993075	-0.054610926
5.020484027	0.328303004	-0.054200701
5.022569512	0.328614553	-0.05379298
5.024654996	0.328927277	-0.053386976
5.02722253	0.329313192	-0.052888546
5.029305849	0.32962645	-0.0524847
5.031389168	0.329939351	-0.052080966
5.033472487	0.330251656	-0.051676965
5.036044467	0.33063631	-0.051177258
5.038128335	0.330947273	-0.0507712
5.040212203	0.331257643	-0.050363804
5.042296071	0.331567335	-0.049954972
5.04486717	0.331948172	-0.049448688
5.046950763	0.332255475	-0.049037107
5.049034356	0.332561414	-0.048624573
5.051117949	0.332865986	-0.048211209
5.053689755	0.333240311	-0.047699851
5.055773346	0.333542629	-0.047284531
5.057856936	0.333844412	-0.046868155
5.059940526	0.334145845	-0.046450649
5.062512471	0.334517436	-0.045933802
5.064595991	0.334817812	-0.045514137
5.066679511	0.33511732	-0.045093883
5.06876303	0.33541577	-0.04467326
5.071335225	0.335782792	-0.044153581
5.073418707	0.336079322	-0.043732126
5.075502189	0.336375757	-0.043309843
5.077585671	0.336672625	-0.042886364
5.080153048	0.337039586	-0.042362514
5.082242696	0.33733922	-0.041934508
5.084332343	0.337639312	-0.041505374
5.086421991	0.337939546	-0.041075575
5.088974338	0.338306905	-0.040550323
5.091060216	0.338608915	-0.040121279
5.093146095	0.338914308	-0.03969287
5.095231974	0.339224945	-0.039265646
5.097792977	0.33961563	-0.038743778
5.09987929	0.339942371	-0.03832182
5.101965603	0.3402771	-0.03790372
5.104051915	0.340620131	-0.037490465
5.106613174	0.341053504	-0.036991167
5.108698759	0.341417613	-0.036592144
5.110784344	0.341793025	-0.036200585
5.112869929	0.342180368	-0.035816806
5.115428838	0.342671871	-0.035356461
5.11752028	0.343086611	-0.034988449
5.119611721	0.343513029	-0.034627406
5.121703163	0.343951405	-0.034272994
5.124242432	0.344500427	-0.033851356
5.126337312	0.344967459	-0.033510462
5.128432191	0.345446528	-0.033175354
5.13052707	0.345936186	-0.032845101
5.133057497	0.34653942	-0.032450754
5.13514853	0.347045961	-0.032126824
5.137239563	0.347558757	-0.031803125
5.139330596	0.348077249	-0.031478598
5.141870935	0.348714004	-0.031082215
5.143961634	0.349242563	-0.030753644
5.146052333	0.349773748	-0.030422475
5.148143031	0.350306016	-0.030088218
5.150686435	0.350952849	-0.029676678
5.152775876	0.351482227	-0.02933411
5.154865318	0.35200888	-0.028987362
5.15695476	0.352532252	-0.028636585
5.159502599	0.353165487	-0.02820399
5.161591371	0.353680244	-0.027846031
5.163680142	0.35419078	-0.027485752
5.165768913	0.354696836	-0.027123764
5.168319852	0.355308411	-0.026680254
5.170407743	0.355803407	-0.026316834
5.172495634	0.35629317	-0.025953741
5.174583526	0.356777534	-0.025591663
5.177137836	0.357362552	-0.025151088
5.179225069	0.357834279	-0.024793826
5.181312303	0.358300204	-0.024439702
5.183399537	0.358760223	-0.024089259
5.185956581	0.359315561	-0.02366562
5.188043211	0.359761831	-0.023324991
5.190129842	0.360201659	-0.022989227
5.192216472	0.360634752	-0.022658531
5.194775952	0.361156286	-0.022260012
5.196862073	0.361573063	-0.021941064
5.198948193	0.361982117	-0.021627356
5.201034314	0.362383289	-0.021318774
5.203595879	0.362865	-0.020946554
5.205681558	0.363248305	-0.02064857
5.207767238	0.36362355	-0.020354776
5.209852917	0.363990633	-0.020064813
5.21241628	0.364430432	-0.019713184
5.214501583	0.364778848	-0.019430624
5.216586887	0.365118813	-0.019150897
5.218672191	0.365450361	-0.018873744
5.221237089	0.36584677	-0.018536032
5.223322071	0.366159916	-0.01826386
5.225407052	0.366465073	-0.017993635
5.227492034	0.366762355	-0.017725273
5.230058245	0.367117578	-0.017397488
5.23214294	0.367397769	-0.017133248
5.234227634	0.367671044	-0.016870816
5.236312328	0.367938312	-0.016610079
5.238879623	0.368260917	-0.016290951
5.24096422	0.368518963	-0.016033059
5.243048816	0.368774481	-0.015776007
5.245133412	0.369027958	-0.015519697
5.247701308	0.369337452	-0.015205176
5.249785635	0.369586087	-0.014951292
5.251869962	0.369832099	-0.014699159
5.253954288	0.370075431	-0.014449239
5.256523151	0.370372034	-0.014144818
5.258607324	0.370610624	-0.013901038
5.260691497	0.370848031	-0.013660252
5.262775669	0.37108474	-0.01342251
5.265345044	0.37137593	-0.013133661
5.267429258	0.3716115	-0.012902932
5.269513472	0.371846081	-0.012675651
5.271597686	0.372079156	-0.012452128
5.274166691	0.372363653	-0.012182295
5.276251328	0.372591746	-0.01196832
5.278335965	0.372816968	-0.011759032
5.280420602	0.373038985	-0.011554446
5.282988137	0.37330756	-0.0113086
5.285073034	0.373521334	-0.011113411
5.287157932	0.373730828	-0.010921599
5.289242829	0.373935508	-0.01073258
5.291809808	0.374179877	-0.010502915
5.29389423	0.374371185	-0.01031836
5.295978651	0.374555319	-0.010135096
5.298063073	0.374731657	-0.009952741
5.300631405	0.374937571	-0.009728706
5.302715771	0.37509542	-0.009546723
5.304800137	0.375245506	-0.009363623
5.306884502	0.375388702	-0.009178256
5.30945281	0.375557079	-0.008944947
5.311537601	0.375688015	-0.008750373
5.313622391	0.375813993	-0.00855049
5.315707182	0.375934905	-0.008344984
5.318274687	0.376076889	-0.008083771
5.320358863	0.376187048	-0.007864631
5.32244304	0.376293731	-0.007638368
5.324527217	0.376398417	-0.007404054
5.3270966	0.376526803	-0.007102886
5.329180697	0.37663146	-0.00684807
5.331264793	0.376736893	-0.006583846
5.33334889	0.376842979	-0.006310692
5.335918767	0.376974482	-0.005962722
5.338002707	0.377081951	-0.00567256
5.340086648	0.377190826	-0.005376224
5.342170588	0.377301784	-0.005074685
5.344740903	0.377442143	-0.00469719
5.346824934	0.377558757	-0.004388036
5.348908965	0.37767735	-0.004077556
5.350992996	0.377797125	-0.003767109
5.353563262	0.377945231	-0.003386201
5.355647082	0.378064747	-0.00308038
5.357730902	0.378183168	-0.002778323
5.359814722	0.378300097	-0.002480875
5.362385645	0.378441744	-0.002121349
5.3644694	0.3785539	-0.001836798
5.366553155	0.37866311	-0.001559063
